<?xml version="1.0" encoding="UTF-8" standalone="no"?>
<svg
   xmlns:dc="http://purl.org/dc/elements/1.1/"
   xmlns:cc="http://creativecommons.org/ns#"
   xmlns:rdf="http://www.w3.org/1999/02/22-rdf-syntax-ns#"
   xmlns:svg="http://www.w3.org/2000/svg"
   xmlns="http://www.w3.org/2000/svg"
   xmlns:xlink="http://www.w3.org/1999/xlink"
   xmlns:sodipodi="http://sodipodi.sourceforge.net/DTD/sodipodi-0.dtd"
   xmlns:inkscape="http://www.inkscape.org/namespaces/inkscape"
   version="1.1"
   id="Layer_1"
   x="0px"
   y="0px"
   viewBox="0 0 18 18"
   style="enable-background:new 0 0 18 18;"
   xml:space="preserve"
   sodipodi:docname="icon_nav_bar.svg"
   inkscape:version="1.0.2 (e86c870879, 2021-01-15, custom)"><metadata
   id="metadata23"><rdf:RDF><cc:Work
       rdf:about=""><dc:format>image/svg+xml</dc:format><dc:type
         rdf:resource="http://purl.org/dc/dcmitype/StillImage" /></cc:Work></rdf:RDF></metadata><defs
   id="defs21">
	
		
	

		<defs
   id="defs5">
			<path
   id="SVGID_1_"
   d="m 6.33,0.46 c 0.11,0.01 0.21,0.02 0.32,0.04 0.66,0.86 1.1,1.69 2.29,2.04 0.59,0.17 1.63,0.17 2.25,0.04 0.37,-0.02 0.75,-0.05 1.12,-0.07 1.08,-0.23 2.67,-0.15 3.52,0.21 0.73,0.3 1.97,1.4 2.17,2.2 0.07,0.27 -0.14,0.54 -0.21,0.7 -0.22,0.54 -0.38,1.1 -0.6,1.62 -0.66,1.61 -1.15,3.27 -1.79,4.85 -0.34,0.82 -0.48,1.87 -1.05,2.46 -0.11,0 -0.21,0 -0.32,0 -0.32,-0.31 -0.51,-0.69 -0.77,-1.05 -0.33,-0.45 -0.93,-0.79 -1.51,-0.98 -0.37,-0.13 -1.1,-0.21 -1.51,-0.11 -0.35,0.01 -0.7,0.02 -1.05,0.04 -0.9,0.2 -2.91,0.34 -3.8,0.07 C 4.73,12.32 4.14,11.95 3.63,11.57 3.56,11.52 3.2,11.12 3.17,11.18 2.89,11.57 2.83,12.16 2.64,12.62 2.2,13.69 1.82,14.85 1.37,15.92 1.21,16.31 1.03,17.34 0.67,17.47 0.34,17.75 -0.01,17.31 0,16.95 0.23,16.64 0.27,16.17 0.42,15.79 0.76,14.96 1.02,14.08 1.37,13.22 2.52,10.43 3.42,7.47 4.57,4.68 4.97,3.7 5.29,2.69 5.66,1.73 5.79,1.38 5.88,0.66 6.22,0.53 6.25,0.5 6.3,0.48 6.33,0.46 Z M 6.54,2 c -1,2.71 -1.99,5.41 -2.99,8.12 0.19,0.15 0.3,0.41 0.49,0.56 0.45,0.35 0.96,0.74 1.55,0.92 0.41,0.12 1.14,0.17 1.58,0.07 0.47,-0.1 0.89,0.03 1.34,-0.07 0.82,-0.18 2.32,-0.28 3.16,-0.07 0.71,0.18 1.28,0.46 1.79,0.84 0.22,0.17 0.36,0.53 0.63,0.63 0.02,-0.18 0.12,-0.32 0.18,-0.46 0.23,-0.54 0.38,-1.1 0.6,-1.62 C 15.36,9.74 15.65,8.55 16.14,7.37 16.45,6.63 16.83,5.82 17.02,5.01 16.85,4.87 16.77,4.63 16.63,4.45 16.3,4 15.68,3.61 15.08,3.43 14.18,3.16 12.45,3.3 11.53,3.5 11.19,3.51 10.85,3.52 10.51,3.54 10.1,3.64 9.44,3.62 9.04,3.52 8.29,3.33 7.7,3.07 7.17,2.67 6.93,2.49 6.79,2.17 6.54,2 Z m 7.38,3.73 C 13.34,5.71 12.66,5.66 11.99,5.66 c 0,-0.02 0,-0.05 0,-0.07 0.13,-0.15 0.52,-1.26 0.56,-1.51 0.62,-0.01 1.42,-0.12 1.97,0.07 -0.12,0.55 -0.47,1.02 -0.56,1.58 0.04,0.03 0,0 0.04,0.04 0.71,0.07 1.11,0.5 1.62,0.77 C 15.56,6.83 15.1,8.14 14.95,8.3 14.7,8.05 14.31,7.81 13.97,7.67 13.76,7.58 13.47,7.59 13.3,7.46 13.44,7.25 13.88,6.03 13.92,5.73 Z M 7.98,5.8 C 8.02,5.41 8.26,5.01 8.4,4.68 8.45,4.57 8.45,4.29 8.54,4.22 c 0.11,0 0.21,0 0.32,0 0.26,0.17 1.3,0.05 1.65,0.04 0,0.02 0,0.05 0,0.07 -0.2,0.52 -0.4,1.03 -0.6,1.55 -0.49,0 -0.98,0 -1.48,0 C 8.35,5.81 8.1,5.81 7.98,5.8 Z M 7.35,7.52 C 6.89,7.52 5.73,6.98 5.66,6.64 5.87,6.09 6.08,5.54 6.29,4.99 6.62,5.15 6.89,5.44 7.24,5.59 7.46,5.66 7.69,5.73 7.91,5.8 7.94,5.84 7.93,5.83 7.95,5.91 7.8,6.1 7.39,7.24 7.35,7.52 Z m 4.01,-0.1 c 0.39,-0.01 1.79,-0.1 1.93,0.14 -0.3,0.36 -0.34,1.66 -0.91,1.65 -0.24,-0.15 -1.36,-0.08 -1.69,-0.04 0,-0.02 0,-0.05 0,-0.07 0.17,-0.2 0.56,-1.37 0.63,-1.69 -0.06,0 -0.12,0 -0.18,0 -0.09,0.06 -0.25,0.01 -0.39,0.04 -0.45,0.1 -0.98,0.14 -1.48,0.14 0,-0.01 0,-0.02 0,-0.04 C 9.44,7.35 9.67,6.6 9.77,6.33 9.82,6.2 9.82,5.95 9.91,5.87 10.59,5.8 11.27,5.73 11.95,5.66 c 0,0.05 0,0.09 0,0.14 -0.13,0.16 -0.56,1.35 -0.59,1.62 z M 8.61,9.35 C 7.95,9.36 7.28,9.4 6.68,9.28 c 0,-0.01 0,-0.02 0,-0.04 0.21,-0.56 0.42,-1.12 0.63,-1.68 0.09,0 0.19,0 0.28,0 0.24,0.15 1.36,0.08 1.69,0.04 0,0.02 0,0.05 0,0.07 -0.17,0.19 -0.56,1.37 -0.63,1.68 0.06,0 0.12,0 0.18,0 C 8.92,9.29 9.08,9.34 9.22,9.31 9.66,9.21 10.2,9.17 10.7,9.17 c 0,0.01 0,0.02 0,0.04 -0.2,0.52 -0.4,1.03 -0.6,1.55 -0.67,0.04 -1.33,0.17 -2.04,0.18 0,-0.01 0,-0.02 0,-0.04 C 8.19,10.71 8.57,9.63 8.61,9.35 Z M 4.99,8.47 C 5.27,8.61 5.49,8.86 5.77,9 6.03,9.14 6.45,9.13 6.68,9.32 6.44,9.64 6.26,10.49 6.08,10.9 5.63,10.74 4.48,10.42 4.43,9.95 4.58,9.78 4.92,8.75 4.99,8.47 Z m 7.63,0.78 c 0.47,0 1.65,0.55 1.69,0.91 -0.24,0.28 -0.35,1.33 -0.63,1.48 -0.3,-0.42 -1.03,-0.68 -1.62,-0.81 0,-0.01 0,-0.02 0,-0.04 0.14,-0.18 0.52,-1.27 0.56,-1.54 z" />
		</defs>
		<clipPath
   id="SVGID_2_">
			<use
   xlink:href="#SVGID_1_"
   style="overflow:visible"
   id="use7"
   x="0"
   y="0"
   width="100%"
   height="100%" />
		</clipPath>
		
	
			
				
		<symbol
   id="default"
   viewBox="0 0 18 18"
   inkscape:label="default"><path
     style="fill:#ffffff;stroke-width:0.0352"
     d="M 0.2992,17.51511 C 0.1415639,17.445048 0.03152224,17.306755 0.01238502,17.15466 -0.0016899,17.042798 0.08527856,16.776984 0.51161303,15.6288 0.7955627,14.86408 1.0641325,14.13544 1.1084348,14.0096 1.1527372,13.88376 1.3657524,13.3056 1.581802,12.7248 2.112992,11.296817 2.2997686,10.792379 2.657058,9.8208 2.9874786,8.9222848 3.2580068,8.1922171 3.7853151,6.776 3.972734,6.27264 4.1623416,5.75784 4.2066654,5.632 4.2509892,5.50616 4.4958873,4.84088 4.7508838,4.1536 5.00588,3.46632 5.3891848,2.4290015 5.6026721,1.8484477 5.816159,1.267894 6.0141041,0.74788923 6.0425496,0.69288162 6.0938265,0.59372301 6.3273679,0.45989993 6.4518024,0.45837306 c 0.034651,-4.2521e-4 0.1241768,0.0304359 0.1989458,0.0685803 0.1090545,0.0556354 0.1801427,0.1435922 0.359398,0.44468096 C 7.2752258,1.4168792 7.7090267,1.8957417 8.0566422,2.1268359 8.3500813,2.321914 8.7231172,2.4736919 9.1168,2.558185 c 0.4714026,0.1011735 1.698511,0.084237 2.8336,-0.03911 1.470908,-0.1598392 2.509343,-0.1599216 3.2032,-2.534e-4 1.146362,0.263796 2.031203,0.9504249 2.696394,2.0923793 0.121832,0.2091528 0.153355,0.2969085 0.151732,0.4224 -0.002,0.1506961 -0.324211,1.0447825 -2.055358,5.7024001 -0.41317,1.111625 -1.010624,2.730067 -1.188971,3.2208 -0.159798,0.439694 -0.315131,0.616 -0.542724,0.616 -0.199785,0 -0.342224,-0.100044 -0.485102,-0.340719 -0.240357,-0.404873 -0.40532,-0.631219 -0.632756,-0.868203 C 12.533973,12.777408 11.969738,12.520326 11.0352,12.424549 10.560044,12.375852 10.075736,12.39813 8.624,12.535463 6.813042,12.706779 5.9000353,12.682 5.1855155,12.442143 4.586786,12.241156 3.925567,11.832425 3.3838381,11.328441 3.2799091,11.231753 3.1828372,11.165819 3.1681228,11.181923 3.1534084,11.198025 2.9081807,11.8448 2.6231722,12.6192 1.066499,16.848856 0.88805175,17.321363 0.81732344,17.400876 0.74844598,17.478308 0.56087156,17.565472 0.46753059,17.563422 0.43302875,17.562664 0.35728,17.540924 0.2992,17.51511 Z M 14.675477,11.4664 c 0.315649,-0.85668 0.776461,-2.10408 1.024027,-2.772 0.247567,-0.66792 0.650501,-1.7562684 0.89541,-2.4185522 L 17.040204,5.0716956 16.875908,4.8223109 C 16.648259,4.476761 16.233732,4.0462682 15.952653,3.8634964 15.090373,3.3027983 14.278783,3.224427 11.8624,3.4685207 10.702096,3.58573 9.5948097,3.6024176 9.0944237,3.5102356 8.1442581,3.3351943 7.4553829,2.9667392 6.8314231,2.2998364 6.5617218,2.0115732 6.5473447,2.001549 6.5179319,2.0812589 6.5009775,2.1272065 6.4224361,2.33904 6.3433955,2.552 6.1088312,3.1839887 5.5270209,4.75889 5.0690218,6.0016 4.8335633,6.64048 4.5880032,7.30576 4.5233324,7.48 3.5210659,10.180367 3.5474549,10.102991 3.6011789,10.183861 3.8938363,10.62439 4.7712435,11.281345 5.3856,11.51994 c 0.3726054,0.144706 0.68716,0.182749 1.4784,0.178797 0.5270362,-0.0026 1.0241884,-0.0336 1.8438425,-0.114849 C 10.862089,11.370343 11.822962,11.4546 12.76,11.939214 c 0.374262,0.193559 0.626296,0.385261 0.968,0.736279 0.18392,0.188933 0.343213,0.344638 0.353986,0.346011 0.01077,0.0014 0.277843,-0.698424 0.593491,-1.555104 z m -1.138065,0.04143 c -0.250216,-0.203739 -0.69689,-0.436897 -1.041412,-0.543604 -0.16456,-0.05097 -0.325875,-0.10337 -0.358477,-0.116449 -0.05195,-0.02084 -0.02358,-0.119501 0.2294,-0.797813 0.200181,-0.5367516 0.306383,-0.777444 0.346439,-0.7851577 0.08366,-0.016111 0.569676,0.1524157 0.856238,0.2969011 0.13552,0.068329 0.3615,0.2060576 0.502178,0.3060626 0.212803,0.151277 0.252671,0.194896 0.237285,0.259612 -0.03762,0.158231 -0.554286,1.523771 -0.576077,1.522559 -0.01242,-6.9e-4 -0.10043,-0.06464 -0.195574,-0.142111 z M 8.1111955,10.8152 c 0.026,-0.0726 0.1520172,-0.413762 0.2800385,-0.758139 C 8.5192554,9.712685 8.624,9.4135318 8.624,9.3922763 8.624,9.3650895 8.506577,9.3607117 8.228,9.377512 8.0059401,9.3909038 7.6155411,9.3839712 7.3392,9.361729 7.06816,9.3399131 6.8088965,9.3194397 6.7630587,9.3162319 c -0.077605,-0.00543 -0.1030441,0.048033 -0.3696,0.7767511 -0.2347681,0.641816 -0.298239,0.782693 -0.3528638,0.7832 -0.2461311,0.0023 -1.0374204,-0.353417 -1.4070623,-0.632499 -0.176391,-0.133176 -0.2000578,-0.164819 -0.180765,-0.241687 0.026662,-0.1062294 0.5061436,-1.4114254 0.5423539,-1.4763405 0.018671,-0.033472 0.071455,-0.00929 0.1991415,0.091234 0.3355472,0.2641654 0.8115934,0.5005613 1.2596563,0.6255223 0.1132553,0.031586 0.217888,0.043965 0.2325168,0.027508 C 6.7010648,9.2534644 6.8434809,8.882205 7.0029168,8.4448999 7.1623524,8.0075948 7.3054626,7.629311 7.3209393,7.6042694 c 0.022693,-0.036718 0.1021272,-0.037803 0.4104,-0.0056 C 8.2609585,7.6539848 9.1923515,7.6513944 9.2651296,7.5944 9.3080458,7.560791 9.9264,5.9710988 9.9264,5.8943766 9.9264,5.8855896 9.61356,5.8779111 9.2312,5.877313 8.6232545,5.8763626 8.0432046,5.8373378 8.0003715,5.794505 7.9926616,5.7867952 8.1167863,5.4292068 8.2762043,4.999864 L 8.5660548,4.219241 8.9206276,4.2480205 C 9.1156423,4.2638492 9.5565427,4.2768 9.9004062,4.2768 c 0.4965388,0 0.6216108,0.00936 0.6077378,0.045477 C 10.349566,4.7351244 9.9616,5.8139611 9.9616,5.8420799 c 0,0.020714 0.03564,0.0301 0.0792,0.020859 0.167812,-0.035603 1.892285,-0.1719861 1.91298,-0.1512917 0.01201,0.012012 -0.114514,0.3879677 -0.28117,0.8354569 -0.166655,0.4474888 -0.30301,0.8306122 -0.30301,0.8513848 0,0.026061 0.117293,0.030211 0.3784,0.013386 0.214731,-0.013837 0.599163,-0.00692 0.8888,0.015994 0.28072,0.022207 0.547342,0.043022 0.592494,0.046254 0.07326,0.00525 0.09712,-0.033875 0.221759,-0.3637223 0.208923,-0.5528794 0.488147,-1.3216287 0.488147,-1.343949 0,-0.04711 -0.319323,-0.074783 -1.097316,-0.095095 L 12.008568,5.6496 12.29544,4.8692452 l 0.286871,-0.7803551 0.36767,-0.02506 c 0.36702,-0.025016 1.511312,0.036075 1.559403,0.083253 0.01352,0.013264 -0.101273,0.3646773 -0.2551,0.7809173 -0.153826,0.41624 -0.279729,0.7735376 -0.279784,0.7939948 -7e-5,0.020457 0.113943,0.064565 0.253329,0.098018 0.399964,0.095991 1.03345,0.4342666 1.392718,0.7436985 0.01095,0.00943 -0.57536,1.617717 -0.616637,1.6914758 -0.02226,0.03977 -0.06375,0.023031 -0.20314,-0.081946 C 14.408308,7.8776688 14.030727,7.6892784 13.578846,7.5635725 13.448411,7.5272877 13.334722,7.4976 13.326204,7.4976 c -0.01739,0 -0.129582,0.2894549 -0.423795,1.0933792 -0.110258,0.3012786 -0.213151,0.5682966 -0.228649,0.5933735 -0.0229,0.037052 -0.109785,0.037676 -0.46377,0.00332 -0.239574,-0.023249 -0.669252,-0.036827 -0.95484,-0.030174 -0.387779,0.00903 -0.519237,0.00138 -0.5192,-0.03024 2.8e-5,-0.023286 0.135448,-0.409288 0.300933,-0.8577839 0.165486,-0.4484955 0.294972,-0.8213575 0.287748,-0.8285819 -0.01467,-0.014672 -2.0067056,0.1651277 -2.0273046,0.1829836 -0.025423,0.022038 -0.6402951,1.7136835 -0.6275242,1.7264548 0.00713,0.00713 0.4313813,-0.026584 0.9427806,-0.07492 0.5113992,-0.048336 0.9634862,-0.087958 1.0046382,-0.08805 0.07001,-1.408e-4 0.05654,0.050239 -0.209258,0.7830342 -0.156242,0.4307605 -0.28654,0.7874285 -0.28955,0.7925965 -0.0078,0.01331 -1.8050966,0.183545 -1.9416515,0.183905 l -0.1128386,2.82e-4 0.047273,-0.132 z M 7.0048,7.4642712 C 6.6992601,7.3662533 6.4051669,7.2365019 6.1945861,7.106811 5.9497166,6.9560029 5.6703726,6.7484926 5.6685728,6.7160632 5.6678195,6.7024577 5.80184,6.3264277 5.9664,5.8804405 6.13096,5.4344537 6.2656,5.0535454 6.2656,5.0339777 c 0,-0.057424 0.03323,-0.043038 0.2227308,0.096422 0.3884743,0.2858933 0.7999795,0.4878861 1.2680455,0.622436 0.163083,0.04688 0.2023198,0.071616 0.1884165,0.1187869 C 7.9351346,5.9043903 7.7949252,6.2915142 7.6332164,6.7318983 7.3044326,7.6272793 7.3494358,7.5748309 7.0048,7.4642712 Z"
     id="path44" /></symbol></defs><sodipodi:namedview
   pagecolor="#ffffff"
   bordercolor="#666666"
   borderopacity="1"
   objecttolerance="10"
   gridtolerance="10"
   guidetolerance="10"
   inkscape:pageopacity="0"
   inkscape:pageshadow="2"
   inkscape:window-width="1920"
   inkscape:window-height="1057"
   id="namedview19"
   showgrid="false"
   inkscape:zoom="24.722222"
   inkscape:cx="12.068038"
   inkscape:cy="11.678692"
   inkscape:window-x="1072"
   inkscape:window-y="442"
   inkscape:window-maximized="1"
   inkscape:current-layer="Layer_1"
   inkscape:document-rotation="0" />

k163BXTsetIe7Jr5kLOKTXf5iTTR/UHuAfLn4VDWKxXh9
XEbekPoGrltbAVpNIA5HRGN5zqUHARRsqoAUDMAPlyaeX+ZLIzvX6TEk8t14q4yIPw8J+s1HkOoU
7/l2WVUP4K6dpIHAyAsdpo+1fRyR2trGZZ5Tsoi5ycQWCnaaMVlcfOkbec9+bq+XWt7qJZoX9aNw
GB78bapNEM+wkh2f2wx8+CLC3WNyKNKd6QjQXapp1f8AT7//2Q==&quot; transform=&quot;matrix(0.0352 0 0 0.0352 0 0)&quot;&gt;
			<use
   xlink:href="#default"
   id="use152"
   x="0"
   y="0"
   width="100%"
   height="100%"
   transform="translate(0.01383912,-0.1120366)" /></svg>
