<?xml version="1.0" encoding="UTF-8" standalone="no"?>
<!DOCTYPE svg PUBLIC "-//W3C//DTD SVG 1.1//EN" "http://www.w3.org/Graphics/SVG/1.1/DTD/svg11.dtd">
<svg width="100%" height="100%" viewBox="0 0 64 64" version="1.1" xmlns="http://www.w3.org/2000/svg" xmlns:xlink="http://www.w3.org/1999/xlink" xml:space="preserve" xmlns:serif="http://www.serif.com/" style="fill-rule:evenodd;clip-rule:evenodd;stroke-linejoin:round;stroke-miterlimit:2;">
    <g transform="matrix(1,0,0,1,-1.42109e-14,-215.545)">
        <g id="error" transform="matrix(1,0,0,1,1.42109e-14,71.6644)">
            <rect x="0" y="143.88" width="64" height="64" style="fill:none;"/>
            <clipPath id="_clip1">
                <rect x="0" y="143.88" width="64" height="64"/>
            </clipPath>
            <g clip-path="url(#_clip1)">
                <g transform="matrix(1,0,0,1,-1.42109e-14,-71.6644)">
                    <path d="M64,237.344C64,231.714 59.429,227.143 53.799,227.143L10.201,227.143C4.571,227.143 -0,231.714 -0,237.344L-0,257.746C-0,263.376 4.571,267.946 10.201,267.946L53.799,267.946C59.429,267.946 64,263.376 64,257.746L64,237.344ZM17.402,260.189L4,260.189L4,234.901L16.838,234.901L16.838,237.581L6.963,237.581L6.963,245.993L16.097,245.993L16.097,248.656L6.963,248.656L6.963,257.508L17.402,257.508L17.402,260.189ZM40.398,260.189L36.871,260.189L32.638,253.099C32.251,252.441 31.874,251.88 31.51,251.415C31.145,250.951 30.772,250.572 30.39,250.278C30.008,249.984 29.597,249.769 29.156,249.634C28.715,249.499 28.218,249.431 27.666,249.431L25.232,249.431L25.232,260.189L22.269,260.189L22.269,234.901L29.817,234.901C30.922,234.901 31.942,235.039 32.877,235.315C33.811,235.591 34.622,236.012 35.31,236.576C35.998,237.14 36.536,237.843 36.924,238.683C37.312,239.524 37.506,240.508 37.506,241.637C37.506,242.519 37.373,243.327 37.109,244.062C36.844,244.797 36.468,245.452 35.98,246.028C35.492,246.604 34.905,247.095 34.217,247.5C33.529,247.906 32.756,248.221 31.898,248.444L31.898,248.514C32.321,248.703 32.688,248.917 33,249.158C33.312,249.399 33.608,249.684 33.891,250.013C34.173,250.343 34.452,250.716 34.728,251.133C35.004,251.551 35.313,252.036 35.654,252.588L40.398,260.189ZM62,260.189L58.473,260.189L54.241,253.099C53.853,252.441 53.477,251.88 53.112,251.415C52.748,250.951 52.374,250.572 51.992,250.278C51.61,249.984 51.199,249.769 50.758,249.634C50.317,249.499 49.82,249.431 49.268,249.431L46.834,249.431L46.834,260.189L43.872,260.189L43.872,234.901L51.419,234.901C52.524,234.901 53.544,235.039 54.479,235.315C55.413,235.591 56.225,236.012 56.912,236.576C57.6,237.14 58.138,237.843 58.526,238.683C58.914,239.524 59.108,240.508 59.108,241.637C59.108,242.519 58.976,243.327 58.711,244.062C58.447,244.797 58.07,245.452 57.583,246.028C57.095,246.604 56.507,247.095 55.819,247.5C55.131,247.906 54.358,248.221 53.5,248.444L53.5,248.514C53.923,248.703 54.291,248.917 54.602,249.158C54.914,249.399 55.211,249.684 55.493,250.013C55.775,250.343 56.054,250.716 56.33,251.133C56.607,251.551 56.915,252.036 57.256,252.588L62,260.189ZM25.232,237.581L25.232,246.751L29.253,246.751C29.993,246.751 30.678,246.639 31.307,246.416C31.936,246.193 32.48,245.872 32.938,245.455C33.397,245.038 33.755,244.526 34.014,243.921C34.273,243.315 34.402,242.636 34.402,241.884C34.402,240.532 33.964,239.477 33.088,238.718C32.212,237.96 30.946,237.581 29.288,237.581L25.232,237.581ZM46.834,237.581L46.834,246.751L50.855,246.751C51.596,246.751 52.28,246.639 52.909,246.416C53.538,246.193 54.082,245.872 54.541,245.455C54.999,245.038 55.358,244.526 55.616,243.921C55.875,243.315 56.004,242.636 56.004,241.884C56.004,240.532 55.566,239.477 54.69,238.718C53.815,237.96 52.548,237.581 50.89,237.581L46.834,237.581Z"/>
                </g>
            </g>
        </g>
    </g>
</svg>
