<?xml version="1.0" encoding="UTF-8" standalone="no"?>
<!DOCTYPE svg PUBLIC "-//W3C//DTD SVG 1.1//EN" "http://www.w3.org/Graphics/SVG/1.1/DTD/svg11.dtd">
<svg width="100%" height="100%" viewBox="0 0 64 64" version="1.1" xmlns="http://www.w3.org/2000/svg" xmlns:xlink="http://www.w3.org/1999/xlink" xml:space="preserve" xmlns:serif="http://www.serif.com/" style="fill-rule:evenodd;clip-rule:evenodd;stroke-linejoin:round;stroke-miterlimit:2;">
    <g transform="matrix(1,0,0,1,0,-73)">
        <g id="gtag" transform="matrix(1,0,0,1,0,-0.00967405)">
            <rect x="0" y="73.01" width="64" height="64" style="fill:none;"/>
            <clipPath id="_clip1">
                <rect x="0" y="73.01" width="64" height="64"/>
            </clipPath>
            <g clip-path="url(#_clip1)">
                <g transform="matrix(1,0,0,1,-3.55271e-15,73.0097)">
                    <path d="M64,21.799C64,16.169 59.429,11.598 53.799,11.598L10.201,11.598C4.571,11.598 -0,16.169 -0,21.799L-0,42.201C-0,47.831 4.571,52.402 10.201,52.402L53.799,52.402C59.429,52.402 64,47.831 64,42.201L64,21.799ZM16.772,39.842C14.948,40.872 12.921,41.388 10.691,41.388C8.098,41.388 6.001,40.552 4.401,38.879C2.8,37.207 2,34.994 2,32.241C2,29.428 2.889,27.12 4.667,25.317C6.445,23.514 8.698,22.612 11.426,22.612C13.402,22.612 15.062,22.933 16.405,23.575L16.405,25.932C14.935,25.003 13.195,24.538 11.185,24.538C9.149,24.538 7.481,25.239 6.181,26.641C4.88,28.043 4.23,29.859 4.23,32.089C4.23,34.386 4.834,36.191 6.041,37.505C7.249,38.818 8.888,39.475 10.957,39.475C12.376,39.475 13.605,39.192 14.644,38.626L14.644,33.533L10.666,33.533L10.666,31.607L16.772,31.607L16.772,39.842ZM62,39.842C60.176,40.872 58.149,41.388 55.919,41.388C53.326,41.388 51.229,40.552 49.629,38.879C48.028,37.207 47.228,34.994 47.228,32.241C47.228,29.428 48.117,27.12 49.895,25.317C51.673,23.514 53.926,22.612 56.654,22.612C58.63,22.612 60.29,22.933 61.633,23.575L61.633,25.932C60.163,25.003 58.423,24.538 56.413,24.538C54.378,24.538 52.709,25.239 51.409,26.641C50.108,28.043 49.458,29.859 49.458,32.089C49.458,34.386 50.062,36.191 51.269,37.505C52.477,38.818 54.116,39.475 56.185,39.475C57.604,39.475 58.833,39.192 59.872,38.626L59.872,33.533L55.894,33.533L55.894,31.607L62,31.607L62,39.842ZM31.113,24.842L25.868,24.842L25.868,41.084L23.74,41.084L23.74,24.842L18.508,24.842L18.508,22.916L31.113,22.916L31.113,24.842ZM46.253,41.084L43.896,41.084L41.97,35.991L34.268,35.991L32.456,41.084L30.087,41.084L37.055,22.916L39.259,22.916L46.253,41.084ZM41.274,34.078L38.423,26.337C38.33,26.084 38.237,25.678 38.144,25.121L38.094,25.121C38.009,25.636 37.912,26.041 37.802,26.337L34.977,34.078L41.274,34.078Z"/>
                </g>
            </g>
        </g>
    </g>
</svg>
