<?xml version="1.0" encoding="UTF-8" standalone="no"?>
<!DOCTYPE svg PUBLIC "-//W3C//DTD SVG 1.1//EN" "http://www.w3.org/Graphics/SVG/1.1/DTD/svg11.dtd">
<svg width="100%" height="100%" viewBox="0 0 64 64" version="1.1" xmlns="http://www.w3.org/2000/svg" xmlns:xlink="http://www.w3.org/1999/xlink" xml:space="preserve" xmlns:serif="http://www.serif.com/" style="fill-rule:evenodd;clip-rule:evenodd;stroke-linejoin:round;stroke-miterlimit:2;">
    <g transform="matrix(1,0,0,1,0,-143)">
        <g id="logo-black" transform="matrix(1,0,0,1,0,-0.880208)">
            <rect x="0" y="143.88" width="64" height="64" style="fill:none;"/>
            <g id="forza_logo-only.eps" transform="matrix(0.0331749,0,0,0.0331749,32,175.88)">
                <g transform="matrix(1,0,0,1,-964.583,-437.5)">
                    <clipPath id="_clip1">
                        <rect x="0" y="0" width="1929.17" height="875"/>
                    </clipPath>
                    <g clip-path="url(#_clip1)">
                        <g transform="matrix(4.16667,0,0,4.16667,0,0)">
                            <path d="M211.929,151.605L272.156,142.392L317.49,74.226L252.123,74.226C251.849,74.238 251.748,74.451 251.936,74.6C252.029,74.675 252.23,74.769 252.23,74.769C254.947,76.058 259.437,80.176 250.907,92.996L211.929,151.605Z" style="fill:rgb(35,31,32);fill-rule:nonzero;"/>
                            <path d="M387.42,74.226L322.047,74.226C321.771,74.238 321.672,74.451 321.859,74.6C321.953,74.675 322.152,74.769 322.152,74.769C324.869,76.058 329.359,80.176 320.83,92.996L289.969,139.4L289.779,139.695L330.346,133.461C334.667,132.688 338.502,131.533 341.932,129.639C353.29,123.356 360.904,114.059 367.939,103.521L387.42,74.226Z" style="fill:rgb(35,31,32);fill-rule:nonzero;"/>
                            <path d="M133.971,163.531L194.3,154.302L247.555,74.226L6.406,74.226C5.225,74.226 4.469,74.649 4.469,75.566C4.469,76.278 4.945,76.785 6.393,77.022L173.337,104.338L133.971,163.531Z" style="fill:rgb(35,31,32);fill-rule:nonzero;"/>
                            <path d="M72.97,100.216L0,210L97.072,195.146L151.13,113.818L72.97,100.216Z" style="fill:rgb(35,31,32);fill-rule:nonzero;"/>
                            <path d="M212.748,0.623L181.024,0.623C157.847,1.718 140.901,10.122 127.192,21.286C116.799,29.758 108.124,40.174 100.336,51.204L93.336,61.731L372.378,61.731C388.751,61.037 401.139,57.616 412.539,51.402C430.893,41.387 444.359,26.664 455.881,10.033L462.123,0.645C459.389,0.645 212.748,0.623 212.748,0.623Z" style="fill:rgb(35,31,32);fill-rule:nonzero;"/>
                            <path d="M211.931,151.603L272.158,142.391L317.492,74.225L252.125,74.225C251.85,74.238 251.75,74.45 251.938,74.599C252.031,74.675 252.231,74.768 252.231,74.768C254.947,76.057 259.437,80.175 250.908,92.995L211.931,151.603Z" style="fill:rgb(35,31,32);fill-rule:nonzero;"/>
                            <path d="M387.42,74.225L322.048,74.225C321.772,74.238 321.672,74.45 321.859,74.599C321.953,74.675 322.154,74.768 322.154,74.768C324.871,76.057 329.359,80.175 320.83,92.995L289.97,139.399L289.779,139.694L330.347,133.459C334.668,132.687 338.503,131.531 341.932,129.637C353.291,123.355 360.905,114.059 367.94,103.52L387.42,74.225Z" style="fill:rgb(35,31,32);fill-rule:nonzero;"/>
                            <path d="M133.974,163.529L194.302,154.301L247.557,74.225L6.41,74.225C5.229,74.225 4.472,74.649 4.472,75.565C4.472,76.278 4.948,76.784 6.396,77.02L173.339,104.337L133.974,163.529Z" style="fill:rgb(35,31,32);fill-rule:nonzero;"/>
                            <path d="M72.973,100.215L0.002,209.998L97.075,195.144L151.132,113.817L72.973,100.215Z" style="fill:rgb(35,31,32);fill-rule:nonzero;"/>
                            <path d="M212.75,0.622L181.026,0.622C157.849,1.718 140.903,10.121 127.194,21.285C116.801,29.758 108.126,40.174 100.339,51.204L93.338,61.731L372.379,61.731C388.752,61.037 401.14,57.615 412.539,51.401C430.893,41.386 444.36,26.663 455.881,10.032L462.123,0.645C459.389,0.644 212.75,0.622 212.75,0.622Z" style="fill:rgb(35,31,32);fill-rule:nonzero;"/>
                        </g>
                    </g>
                </g>
            </g>
        </g>
    </g>
</svg>
