<?xml version="1.0" encoding="UTF-8" standalone="no"?>
<!DOCTYPE svg PUBLIC "-//W3C//DTD SVG 1.1//EN" "http://www.w3.org/Graphics/SVG/1.1/DTD/svg11.dtd">
<svg width="100%" height="100%" viewBox="0 0 64 64" version="1.1" xmlns="http://www.w3.org/2000/svg" xmlns:xlink="http://www.w3.org/1999/xlink" xml:space="preserve" xmlns:serif="http://www.serif.com/" style="fill-rule:evenodd;clip-rule:evenodd;stroke-linejoin:round;stroke-miterlimit:2;">
    <g transform="matrix(1,0,0,1,-72,-73)">
        <g id="xuid" transform="matrix(1,0,0,1,-0.610966,0)">
            <rect x="72.611" y="73" width="64" height="64" style="fill:none;"/>
            <clipPath id="_clip1">
                <rect x="72.611" y="73" width="64" height="64"/>
            </clipPath>
            <g clip-path="url(#_clip1)">
                <g transform="matrix(1,0,0,1,72.611,73)">
                    <path d="M64,21.799C64,16.169 59.429,11.598 53.799,11.598L10.201,11.598C4.571,11.598 -0,16.169 -0,21.799L-0,42.201C-0,47.831 4.571,52.402 10.201,52.402L53.799,52.402C59.429,52.402 64,47.831 64,42.201L64,21.799ZM34.426,33.676C34.426,39.073 31.991,41.772 27.121,41.772C22.456,41.772 20.123,39.176 20.123,33.984L20.123,22.228L22.375,22.228L22.375,33.836C22.375,37.777 24.038,39.748 27.362,39.748C30.57,39.748 32.174,37.845 32.174,34.038L32.174,22.228L34.426,22.228L34.426,33.676ZM41.477,41.45L39.225,41.45L39.225,22.228L41.477,22.228L41.477,41.45ZM17.442,41.45L14.694,41.45L10.271,34.091C10.137,33.868 9.989,33.55 9.828,33.139L9.775,33.139C9.685,33.345 9.534,33.662 9.319,34.091L4.761,41.45L2,41.45L8.434,31.786L2.509,22.228L5.271,22.228L9.198,28.984C9.458,29.431 9.685,29.878 9.882,30.324L9.936,30.324C10.222,29.735 10.472,29.27 10.686,28.93L14.775,22.228L17.362,22.228L11.316,31.759L17.442,41.45ZM46.531,41.45L46.531,22.228L51.839,22.228C58.613,22.228 62,25.351 62,31.598C62,34.565 61.059,36.949 59.178,38.749C57.297,40.55 54.779,41.45 51.625,41.45L46.531,41.45ZM48.783,24.265L48.783,39.413L51.651,39.413C54.172,39.413 56.133,38.738 57.536,37.389C58.939,36.039 59.641,34.127 59.641,31.651C59.641,26.727 57.022,24.265 51.786,24.265L48.783,24.265Z"/>
                </g>
            </g>
        </g>
    </g>
</svg>
