<?xml version="1.0" encoding="UTF-8" standalone="no"?>
<!DOCTYPE svg PUBLIC "-//W3C//DTD SVG 1.1//EN" "http://www.w3.org/Graphics/SVG/1.1/DTD/svg11.dtd">
<svg width="100%" height="100%" viewBox="0 0 64 64" version="1.1" xmlns="http://www.w3.org/2000/svg" xmlns:xlink="http://www.w3.org/1999/xlink" xml:space="preserve" xmlns:serif="http://www.serif.com/" style="fill-rule:evenodd;clip-rule:evenodd;stroke-linejoin:round;stroke-miterlimit:2;">
    <g transform="matrix(1,0,0,1,-72,0)">
        <g id="t10id" transform="matrix(1,0,0,1,-0.981501,0)">
            <rect x="72.982" y="0" width="64" height="64" style="fill:none;"/>
            <clipPath id="_clip1">
                <rect x="72.982" y="0" width="64" height="64"/>
            </clipPath>
            <g clip-path="url(#_clip1)">
                <g transform="matrix(1,0,0,1,0.981501,0)">
                    <path d="M136,21.799C136,16.169 131.429,11.598 125.799,11.598L82.201,11.598C76.571,11.598 72,16.169 72,21.799L72,42.201C72,47.831 76.571,52.402 82.201,52.402L125.799,52.402C131.429,52.402 136,47.831 136,42.201L136,21.799ZM132.894,31.954C132.894,34.151 132.696,36.099 132.299,37.795C131.902,39.492 131.328,40.923 130.578,42.089C129.827,43.255 128.905,44.14 127.813,44.744C126.72,45.348 125.478,45.651 124.087,45.651C122.768,45.651 121.593,45.361 120.562,44.781C119.53,44.201 118.661,43.356 117.953,42.245C117.245,41.134 116.708,39.77 116.341,38.152C115.975,36.535 115.792,34.682 115.792,32.595C115.792,30.3 115.984,28.274 116.369,26.516C116.753,24.758 117.318,23.284 118.063,22.094C118.807,20.904 119.732,20.007 120.837,19.402C121.941,18.798 123.208,18.496 124.636,18.496C130.141,18.496 132.894,22.982 132.894,31.954ZM107.259,45.193L104.256,45.193L104.256,22.506C104.024,22.738 103.686,23.003 103.24,23.302C102.795,23.602 102.294,23.898 101.739,24.191C101.183,24.484 100.597,24.758 99.981,25.015C99.364,25.271 98.763,25.472 98.177,25.619L98.177,22.579C98.836,22.396 99.535,22.149 100.274,21.838C101.012,21.526 101.739,21.178 102.453,20.794C103.167,20.409 103.841,20.007 104.476,19.585C105.111,19.164 105.66,18.752 106.124,18.349L107.259,18.349L107.259,45.193ZM93.325,21.719L85.744,21.719L85.744,45.193L82.668,45.193L82.668,21.719L75.106,21.719L75.106,18.935L93.325,18.935L93.325,21.719ZM129.818,32.247C129.818,24.776 128.042,21.041 124.49,21.041C120.742,21.041 118.868,24.844 118.868,32.449C118.868,39.541 120.705,43.087 124.38,43.087C128.005,43.087 129.818,39.474 129.818,32.247Z"/>
                </g>
            </g>
        </g>
    </g>
</svg>
